<svg width="22" height="22" viewBox="0 0 22 22" fill="none" xmlns="http://www.w3.org/2000/svg">
<path d="M11 0.5C8.56567 0.516578 6.21276 1.37849 4.34375 2.93828C2.47473 4.49807 1.20577 6.65882 0.753937 9.05089C0.302102 11.443 0.695471 13.9177 1.86675 16.0518C3.03803 18.1858 4.91444 19.8466 7.17498 20.75C7.02306 19.7558 7.02306 18.7442 7.17498 17.75L8.41249 12.5C8.21664 12.0245 8.11967 11.5142 8.12749 11C8.12749 9.545 8.97499 8.45 10.025 8.45C10.2152 8.44714 10.4038 8.48543 10.5778 8.56224C10.7519 8.63906 10.9072 8.75258 11.0333 8.89504C11.1594 9.0375 11.2532 9.20553 11.3083 9.38761C11.3634 9.5697 11.3784 9.76154 11.3525 9.95C11.3525 10.85 10.7825 12.2 10.4825 13.445C10.4179 13.6772 10.4102 13.9215 10.4601 14.1573C10.51 14.3931 10.6159 14.6133 10.769 14.7995C10.922 14.9857 11.1176 15.1322 11.3393 15.2267C11.561 15.3212 11.8022 15.361 12.0425 15.3425C13.9025 15.3425 15.3425 13.37 15.3425 10.535C15.3612 9.95891 15.2596 9.38525 15.0442 8.85061C14.8288 8.31598 14.5044 7.8321 14.0916 7.42986C13.6787 7.02762 13.1866 6.71584 12.6465 6.51442C12.1065 6.31299 11.5304 6.22634 10.955 6.26C10.3407 6.23361 9.72736 6.33216 9.15223 6.54966C8.57709 6.76717 8.05206 7.09912 7.60894 7.52542C7.16581 7.95172 6.81379 8.46351 6.57419 9.0298C6.33459 9.59609 6.21239 10.2051 6.21498 10.82C6.20665 11.6766 6.46914 12.5139 6.96498 13.2125C7.00104 13.2526 7.02673 13.3009 7.0398 13.3532C7.05287 13.4055 7.05294 13.4602 7.03999 13.5125C6.95749 13.8425 6.77749 14.5625 6.74749 14.705C6.71748 14.8475 6.58998 14.9375 6.39498 14.8475C5.08248 14.2325 4.26498 12.32 4.26498 10.775C4.26498 7.4675 6.67249 4.4225 11.2025 4.4225C14.84 4.4225 17.675 7.0175 17.675 10.49C17.675 14.105 15.425 17.015 12.2225 17.015C11.753 17.0313 11.2869 16.9301 10.8664 16.7206C10.446 16.511 10.0846 16.1997 9.81499 15.815L9.16249 18.3125C8.8497 19.2831 8.41095 20.2085 7.85749 21.065C8.87732 21.3664 9.93662 21.513 11 21.5C13.7848 21.5 16.4555 20.3938 18.4246 18.4246C20.3937 16.4555 21.5 13.7848 21.5 11C21.5 8.21523 20.3937 5.54451 18.4246 3.57538C16.4555 1.60625 13.7848 0.5 11 0.5Z" fill="white"/>
</svg>
