<svg width="20" height="20" viewBox="0 0 20 20" fill="none" xmlns="http://www.w3.org/2000/svg">
<path d="M18.9325 11.4101C19.0081 10.9439 19.0457 10.4723 19.045 10.0001C19.045 7.60117 18.0921 5.30054 16.3958 3.60427C14.6995 1.90801 12.3989 0.955053 10 0.955053C9.52774 0.95432 9.05619 0.991943 8.59001 1.06755C7.54457 0.441307 6.31987 0.182284 5.11039 0.331618C3.90091 0.480953 2.77599 1.03008 1.91427 1.89181C1.05254 2.75353 0.503414 3.87845 0.354079 5.08793C0.204745 6.29741 0.463767 7.52211 1.09001 8.56755C1.00564 9.04052 0.960486 9.51965 0.955014 10.0001C0.955014 12.3989 1.90797 14.6996 3.60423 16.3958C5.3005 18.0921 7.60113 19.0451 10 19.0451C10.4723 19.0458 10.9438 19.0082 11.41 18.9326C12.4555 19.5588 13.6802 19.8178 14.8896 19.6685C16.0991 19.5192 17.224 18.97 18.0858 18.1083C18.9475 17.2466 19.4966 16.1217 19.6459 14.9122C19.7953 13.7027 19.5363 12.478 18.91 11.4326L18.9325 11.4101ZM14.2975 14.1101C13.8742 14.6953 13.2908 15.1459 12.6175 15.4076C11.7868 15.7336 10.8997 15.8916 10.0075 15.8726C8.96904 15.916 7.93591 15.7022 7.00001 15.2501C6.45438 14.9567 5.98647 14.5377 5.63501 14.0276C5.31308 13.5918 5.13011 13.069 5.11001 12.5276C5.10922 12.3871 5.13746 12.2479 5.19295 12.1189C5.24845 11.9898 5.33001 11.8736 5.43251 11.7776C5.65968 11.5842 5.9521 11.485 6.25001 11.5001C6.49898 11.4953 6.74129 11.5806 6.93251 11.7401C7.14183 11.9359 7.30347 12.177 7.40501 12.4451C7.53513 12.7583 7.70125 13.0553 7.90001 13.3301C8.09811 13.5838 8.35572 13.7847 8.65001 13.9151C9.04975 14.0866 9.48293 14.166 9.91751 14.1476C10.5365 14.1775 11.1496 14.0151 11.6725 13.6826C11.8732 13.565 12.0401 13.3976 12.1571 13.1965C12.274 12.9955 12.337 12.7676 12.34 12.5351C12.3465 12.3722 12.3184 12.2098 12.2577 12.0586C12.1969 11.9073 12.1049 11.7707 11.9875 11.6576C11.7205 11.4115 11.3993 11.2317 11.05 11.1326C10.66 11.0051 10.1425 10.8776 9.49001 10.7351C8.74063 10.5606 8.00977 10.3145 7.30751 10.0001C6.75493 9.77358 6.26768 9.41265 5.89001 8.95005C5.53181 8.47323 5.34665 7.88865 5.36501 7.29255C5.35895 6.68656 5.55415 6.09568 5.92001 5.61255C6.3379 5.09336 6.89442 4.70328 7.52501 4.48755C8.32237 4.22272 9.16025 4.10084 10 4.12755C10.6571 4.11593 11.3121 4.20445 11.9425 4.39005C12.4373 4.53696 12.902 4.77059 13.315 5.08005C13.64 5.32418 13.9108 5.63322 14.11 5.98755C14.2721 6.27378 14.3598 6.59613 14.365 6.92505C14.3641 7.06527 14.335 7.20387 14.2796 7.33268C14.2242 7.46149 14.1436 7.57791 14.0425 7.67505C13.9404 7.78564 13.8162 7.87352 13.678 7.93296C13.5397 7.99239 13.3905 8.02207 13.24 8.02005C12.9987 8.03883 12.7596 7.96358 12.5725 7.81005C12.3757 7.62043 12.2111 7.40005 12.085 7.15755C11.8993 6.7753 11.6302 6.43956 11.2975 6.17505C10.861 5.90292 10.3471 5.78171 9.83501 5.83005C9.30932 5.80789 8.78843 5.93812 8.33501 6.20505C8.17031 6.293 8.03122 6.42214 7.93132 6.57988C7.83142 6.73762 7.77412 6.91856 7.76501 7.10505C7.75908 7.30882 7.8255 7.5081 7.95251 7.66755C8.10209 7.84087 8.28596 7.98132 8.49251 8.08005C8.71248 8.19384 8.94374 8.28433 9.18251 8.35005C9.42251 8.41755 9.81251 8.51505 10.36 8.64255C11.05 8.79255 11.665 8.95755 12.2275 9.13755C12.7307 9.29084 13.2102 9.51294 13.6525 9.79755C14.0383 10.0416 14.3558 10.3796 14.575 10.7801C14.7979 11.2367 14.9011 11.7426 14.875 12.2501C14.8818 12.9152 14.6798 13.5657 14.2975 14.1101Z" fill="white"/>
</svg>
